<?xml version="1.0" encoding="UTF-8" standalone="no"?>
<svg width="530px" height="180px" viewBox="0 0 530 180" version="1.1" xmlns="http://www.w3.org/2000/svg" xmlns:xlink="http://www.w3.org/1999/xlink">
    <!-- Generator: Sketch 46 (44423) - http://www.bohemiancoding.com/sketch -->
    <title>A4 Copy 11</title>
    <desc>Created with Sketch.</desc>
    <defs></defs>
    <g id="Page-1" stroke="none" stroke-width="1" fill="none" fill-rule="evenodd">
        <g id="A4-Copy-12" transform="translate(-156.000000, -208.000000)">
            <rect id="Rectangle-2-Copy-28" fill="#54A3FD" x="262.40453" y="304.852064" width="14.475344" height="43.4260321"></rect>
            <rect id="Rectangle-2-Copy-26" fill="#54A3FD" x="291.355218" y="304.852064" width="14.475344" height="28.9506881"></rect>
            <rect id="Rectangle-2-Copy-29" fill="#54A3FD" x="320.305906" y="304.852064" width="14.475344" height="14.475344"></rect>
            <rect id="Rectangle-2-Copy-28" fill="#006099" transform="translate(284.117546, 283.139048) rotate(-90.000000) translate(-284.117546, -283.139048) " x="276.879874" y="261.426032" width="14.475344" height="43.4260321"></rect>
            <rect id="Rectangle-2-Copy-26" fill="#006099" transform="translate(276.879874, 254.188360) rotate(-90.000000) translate(-276.879874, -254.188360) " x="269.642202" y="239.713016" width="14.475344" height="28.9506881"></rect>
            <rect id="Rectangle-2-Copy-29" fill="#006099" transform="translate(269.642202, 225.237672) rotate(-90.000000) translate(-269.642202, -225.237672) " x="262.40453" y="218" width="14.475344" height="14.475344"></rect>
            <rect id="Rectangle-2-Copy-28" fill="#54A3FD" transform="translate(242.139048, 268.663704) rotate(-180.000000) translate(-242.139048, -268.663704) " x="234.901376" y="246.950688" width="14.475344" height="43.4260321"></rect>
            <rect id="Rectangle-2-Copy-26" fill="#54A3FD" transform="translate(213.188360, 275.901376) rotate(-180.000000) translate(-213.188360, -275.901376) " x="205.950688" y="261.426032" width="14.475344" height="28.9506881"></rect>
            <rect id="Rectangle-2-Copy-29" fill="#54A3FD" transform="translate(184.237672, 283.139048) rotate(-180.000000) translate(-184.237672, -283.139048) " x="177" y="275.901376" width="14.475344" height="14.475344"></rect>
            <rect id="Rectangle-2-Copy-28" fill="#006099" transform="translate(227.663704, 312.089736) rotate(-270.000000) translate(-227.663704, -312.089736) " x="220.426032" y="290.37672" width="14.475344" height="43.4260321"></rect>
            <rect id="Rectangle-2-Copy-26" fill="#006099" transform="translate(234.901376, 341.040424) rotate(-270.000000) translate(-234.901376, -341.040424) " x="227.663704" y="326.56508" width="14.475344" height="28.9506881"></rect>
            <rect id="Rectangle-2-Copy-29" fill="#006099" transform="translate(242.139048, 369.991112) rotate(-270.000000) translate(-242.139048, -369.991112) " x="234.901376" y="362.75344" width="14.475344" height="14.475344"></rect>
            <path d="M427.308594,273.609375 C431.069029,276.825537 432.949219,281.402314 432.949219,287.339844 C432.949219,293.57425 431.069029,298.416975 427.308594,301.868164 C423.548158,305.319353 418.27868,307.044922 411.5,307.044922 L401.851562,307.044922 L401.851562,322 L388.306641,322 L388.306641,268.785156 L411.5,268.785156 C418.27868,268.785156 423.548158,270.393213 427.308594,273.609375 Z M401.851562,296.394531 L410.832031,296.394531 C413.825536,296.394531 416.126294,295.658536 417.734375,294.186523 C419.342456,292.714511 420.146484,290.580743 420.146484,287.785156 C420.146484,285.039049 419.336271,282.960945 417.71582,281.550781 C416.09537,280.140618 413.800796,279.435547 410.832031,279.435547 L401.851562,279.435547 L401.851562,296.394531 Z M470.59668,283.165039 C473.998389,284.884449 476.620759,287.327458 478.463867,290.494141 C480.306975,293.660823 481.228516,297.322245 481.228516,301.478516 C481.228516,305.634786 480.306975,309.296208 478.463867,312.462891 C476.620759,315.629573 473.998389,318.084952 470.59668,319.829102 C467.19497,321.573251 463.29234,322.445312 458.888672,322.445312 C454.435525,322.445312 450.52671,321.573251 447.162109,319.829102 C443.797509,318.084952 441.17514,315.629573 439.294922,312.462891 C437.414704,309.296208 436.474609,305.634786 436.474609,301.478516 C436.474609,297.322245 437.414704,293.660823 439.294922,290.494141 C441.17514,287.327458 443.797509,284.884449 447.162109,283.165039 C450.52671,281.445629 454.435525,280.585938 458.888672,280.585938 C463.29234,280.585938 467.19497,281.445629 470.59668,283.165039 Z M452.264648,293.945312 C450.569979,295.924489 449.722656,298.48501 449.722656,301.626953 C449.722656,304.818375 450.569979,307.391266 452.264648,309.345703 C453.959318,311.30014 456.167304,312.277344 458.888672,312.277344 C461.5853,312.277344 463.780916,311.30014 465.475586,309.345703 C467.170256,307.391266 468.017578,304.818375 468.017578,301.626953 C468.017578,298.48501 467.170256,295.924489 465.475586,293.945312 C463.780916,291.966136 461.5853,290.976562 458.888672,290.976562 C456.167304,290.976562 453.959318,291.966136 452.264648,293.945312 Z M524.126953,283.202148 C527.046239,284.946298 529.303703,287.414047 530.899414,290.605469 C532.495125,293.796891 533.292969,297.495422 533.292969,301.701172 C533.292969,305.807963 532.507495,309.432276 530.936523,312.574219 C529.365552,315.716162 527.157566,318.146801 524.3125,319.866211 C521.467434,321.585621 518.152363,322.445312 514.367188,322.445312 C511.744779,322.445312 509.363617,321.938156 507.223633,320.923828 C505.083648,319.9095 503.283861,318.449879 501.824219,316.544922 L501.824219,336.732422 L488.6875,336.732422 L488.6875,281.03125 L501.824219,281.03125 L501.824219,286.449219 C503.283861,284.569001 505.052724,283.12175 507.130859,282.107422 C509.208995,281.093094 511.522123,280.585938 514.070312,280.585938 C517.855488,280.585938 521.207668,281.457999 524.126953,283.202148 Z M517.50293,309.048828 C519.1976,307.044912 520.044922,304.472021 520.044922,301.330078 C520.044922,298.188135 519.1976,295.627614 517.50293,293.648438 C515.80826,291.669261 513.600274,290.679688 510.878906,290.679688 C508.256497,290.679688 506.091805,291.669261 504.384766,293.648438 C502.677726,295.627614 501.824219,298.188135 501.824219,301.330078 C501.824219,304.5215 502.659171,307.106761 504.329102,309.085938 C505.999032,311.065114 508.182278,312.054688 510.878906,312.054688 C513.600274,312.054688 515.80826,311.052744 517.50293,309.048828 Z M540.714844,322 L540.714844,265.59375 L553.851562,265.59375 L553.851562,322 L540.714844,322 Z M564.6875,322 L564.6875,281.03125 L577.787109,281.03125 L577.787109,322 L564.6875,322 Z M576.28418,264.276367 C577.583014,265.575202 578.232422,267.238922 578.232422,269.267578 C578.232422,271.296234 577.583014,272.966139 576.28418,274.277344 C574.985345,275.588548 573.321625,276.244141 571.292969,276.244141 C569.264313,276.244141 567.606777,275.588548 566.320312,274.277344 C565.033848,272.966139 564.390625,271.296234 564.390625,269.267578 C564.390625,267.238922 565.033848,265.575202 566.320312,264.276367 C567.606777,262.977533 569.264313,262.328125 571.292969,262.328125 C573.321625,262.328125 574.985345,262.977533 576.28418,264.276367 Z M626.010742,284.723633 C628.74448,287.581069 630.111328,291.397112 630.111328,296.171875 L630.111328,322 L617.011719,322 L617.011719,299.808594 C617.011719,297.433582 616.368496,295.547208 615.082031,294.149414 C613.795566,292.751621 612.039074,292.052734 609.8125,292.052734 C607.486968,292.052734 605.575854,292.813469 604.079102,294.334961 C602.582349,295.856453 601.710288,297.854154 601.462891,300.328125 L601.462891,322 L588.289062,322 L588.289062,281.03125 L601.462891,281.03125 L601.462891,287.710938 C604.357436,282.936174 608.909474,280.511719 615.119141,280.4375 C619.646507,280.4375 623.277005,281.866197 626.010742,284.723633 Z" id="Poplin" fill="#006099"></path>
        </g>
    </g>
</svg>